<?xml version="1.0" encoding="UTF-8"?>
<!DOCTYPE svg PUBLIC "-//W3C//DTD SVG 1.1//EN" "http://www.w3.org/Graphics/SVG/1.1/DTD/svg11.dtd">
<!-- Creator: CorelDRAW -->
<svg xmlns="http://www.w3.org/2000/svg" xml:space="preserve" width="512px" height="128px" style="shape-rendering:geometricPrecision; text-rendering:geometricPrecision; image-rendering:optimizeQuality; fill-rule:evenodd; clip-rule:evenodd"
viewBox="0 0 493.93 123.483"
 xmlns:xlink="http://www.w3.org/1999/xlink">
 <defs>
  <style type="text/css">
   <![CDATA[
    .fil0 {fill:none}
    .fil3 {fill:#7DBD04}
    .fil4 {fill:#80BD00}
    .fil1 {fill:#7DBD04;fill-rule:nonzero}
    .fil2 {fill:#80BD00;fill-rule:nonzero}
   ]]>
  </style>
 </defs>
 <g id="图层_x0020_1">
  <metadata id="CorelCorpID_0Corel-Layer"/>
  <g id="_217667352">
   <rect id="_217667520" class="fil0" x="-1.2964e-005" y="-2.16855e-005" width="493.93" height="123.483"/>
   <polygon id="_217667184" class="fil1" points="74.7898,31.8582 89.4783,31.8687 89.4783,55.6183 89.4978,65.652 51.2839,65.652 51.2839,71.6354 91.5167,71.6354 83.065,80.6565 51.2839,80.6565 51.2839,89.1254 94.1991,89.1254 94.1991,98.1465 39.2675,98.1465 26.071,98.1465 23.1746,98.1465 16.4154,88.9413 13.4112,98.1465 -0,98.1465 9.33432,69.7024 22.7451,69.7024 21.3506,74.1209 32.5082,89.1254 36.5852,89.1254 36.5852,65.652 3.96987,65.652 3.96987,31.8687 18.8047,31.8585 18.7756,56.6309 71.454,56.6309 74.7799,56.6594 "/>
   <path id="_217667424" class="fil1" d="M131.095 93.2314l6.57352 -21.7464 13.0422 0 -6.68002 21.7464 -12.9357 0zm6.57352 -27.3202l-6.0437 -15.2588 13.0421 0 6.0438 15.2588 -13.0422 0zm31.0677 4.4773l13.0421 0 7.98151 27.7261 -12.9357 0 -8.08792 -27.7261zm13.0421 -4.4773l-13.0421 0 6.0437 -15.2588 13.0422 0 -6.0438 15.2588zm9.41284 -24.346l-15.7749 -0.421867 -7.74033 0 0 57.1269 -22.2671 -0.184645 2.43917 -7.50388 4.9832 0.155993 0 -49.5944 -23.9172 0 0 -9.27354 23.9172 0 0 -1.35812 14.8447 0 0 1.35812 5.83156 0 -0.186285 -1.33766 12.3155 0.421867 5.5545 10.6112zm-71.5478 -0.415403l0 17.0863 9.01278 0 0 9.04577 -9.01278 0 0 21.8436 9.01114 0 0 9.02108 -37.0238 0 0 -9.02108 13.5923 0 0 -21.8436 -8.58841 0 0 -9.04577 8.58841 0 0 -17.0863 -18.0847 0 0 -9.28251 42.4723 0 0 9.28251 -9.96726 0z"/>
   <path id="_217386216" class="fil2" d="M277.796 41.1807l-20.2353 27.9817 10.8084 20.7513 17.8865 -0.0370448 -0.0312565 8.38196 -12.2295 -0.00540236 -15.4432 -25.8513 16.717 -31.2213 -32.0746 0 4.39714 -10.64 13.1069 0 -0.452448 1.32802 26.4267 0 -8.87637 9.31194zm-78.6072 15.7362l-4.23314 0 -4.185 -8.31607 18.6478 0 0 -7.49337 -15.8836 0 -5.03683 -9.22945 20.9205 0 0 -1.34085 11.9348 0 0 1.34085 130.893 0 0 9.22945 -130.893 0 0 7.49337 3.51617 0 2.34453 -4.38691 10.9759 0 -2.23822 4.38691 2.77122 0 4.83685 8.31607 -30.6248 0 -1.81153 4.88769 29.4105 0 0 7.21939 -13.3198 8.95596 12.2541 0 3.93687 6.39717 -19.4945 0 0 13.9314 -43.4761 -0.246676 -1.2629 -6.09975 31.4192 0.346041 0 -7.93105 -15.4566 0 -3.93697 -6.39717 21.4183 0 11.2951 -8.95596 -16.7295 0 -1.81153 3.47295 -14.066 0 7.88542 -15.58z"/>
   <path id="_111797624" class="fil1" d="M352.586 63.9245l19.0971 0 -6.63622 8.5529 -12.4608 0 0 25.7503 -24.031 -0.055953 1.9298 -7.85311 8.04643 0.0939625 0 -17.9352c-9.7858,0 -22.1588,0 -31.9446,0l8.77025 -15.4848 -4.7208 0 4.94924 -8.55261 2.668 0 3.09748 -7.31268 -9.54896 0 0.243203 -9.24933 12.4454 0 0.553453 -1.23569 14.9128 0 -0.445791 1.23569 31.9717 0 -7.00185 9.24933 -27.8954 0 -2.98944 7.31268 4.93525 0 12.338 0 1.7167 0 0 15.4845zm-14.0547 0l0 -6.93191 -7.61733 0 -1.71699 6.93191 9.33432 0zm-9.76313 12.4154l-5.14999 21.9798 -12.982 0 5.25737 -21.9798 12.8746 0zm38.9453 0l4.07695 21.9798 -12.982 0 -3.96958 -21.9798 12.8746 0zm-90.1217 6.89737l11.9085 -20.8761 -11.9085 0 17.3567 -30.4832 15.4493 0 -11.885 21.0106 11.9089 0 -12.7672 22.2559 12.0163 0 -1.92276 8.09284 -14.7067 0 -10.6217 0 -4.82788 0zm33.0444 15.0351l-24.4183 -0.0136988 -0.612975 -8.37906 28.5247 0.02296 -3.4934 8.3698z"/>
   <polygon id="_113651296" class="fil3" points="17.9946,40.888 72.6439,40.888 72.6439,31.8387 24.7309,31.8387 17.9549,36.7021 "/>
   <polygon id="_217315232" class="fil4" points="249.485,98.2644 280.063,39.8687 271.238,35.2417 238.261,98.2589 "/>
   <polygon id="_217315328" class="fil4" points="269.803,98.2687 241.116,48.6011 252.631,48.6099 281.335,98.2565 "/>
   <path id="_217315424" class="fil4" d="M405.979 19.8433c0,0 28.1353,-8.31578 55.0233,-4.71231 0,0 -21.6212,-17.879 -55.0233,4.71231z"/>
   <path id="_217315520" class="fil4" d="M395.611 31.1592c5.48928,-5.41905 20.8058,-10.7999 18.7625,-5.15366 0,0 -8.53274,18.3696 -9.91864,31.1205 0,0 -0.19545,5.10986 -4.55969,8.91998l-9.9062 8.79784c0,0 -3.06555,3.0998 -4.08718,-2.6324 0,0 -1.45478,-9.00564 -0.796655,-13.37 0,0 0.381252,6.73723 3.63685,4.5375 0,0 4.91895,-2.91004 5.68049,-6.8582 0,0 3.68856,-14.9132 6.02682,-20.6783 0,0 1.57759,-3.824 -2.62458,-2.07663 0,0 -5.7922,3.08108 -7.28161,4.98619 0,0 1.41204,-3.82458 5.0679,-7.59283z"/>
   <path id="_217315616" class="fil4" d="M403.151 74.9477c0,0 3.81002,-4.32961 8.41678,-0.484958 0,0 20.0549,16.3833 32.8013,20.0549 0,0 5.05709,1.55868 4.50287,6.85811l-0.242431 11.7767c0,0 0.069266,3.84465 -5.50732,3.94864 0,0 -10.0448,0.034633 -11.361,-0.346426 0,0 5.36869,-0.34633 5.50732,-6.58104 0,0 0.450229,-6.06145 -3.63695,-6.40788 0,0 -16.418,-7.44696 -23.2761,-14.3051 0,0 -2.80566,-2.84029 -5.19563,-0.27716 0,0 -3.04809,3.04809 -4.05254,4.81457 0,0 -1.87037,3.94864 0.034633,7.23917 0,0 -5.95755,-5.61122 -8.86711,-11.4302 0,0 -1.52395,-4.05254 1.28161,-6.37324 0,0 10.4122,-9.22058 9.5945,-8.48605z"/>
   <path id="_217315712" class="fil4" d="M473.845 104.77c0,0 -7.65476,6.82357 -11.9497,7.10063 0,0 -3.25589,0.242527 -2.84029,-4.05254l0.207894 -7.44696c0,0 -0.034633,-4.19108 2.77093,-7.72403 0,0 15.8637,-16.1409 20.6437,-24.731 0,0 3.46726,-7.62158 6.38993,-1.67251 0,0 3.2392,10.6782 1.50736,15.3888 0,0 -2.2168,6.68494 -3.91401,8.65931 0,0 0.96982,-5.57659 0.62349,-9.62913 0,0 -0.34633,-3.56758 -2.35533,-1.24698 0,0 -8.00119,11.7767 -14.79,17.2494 0,0 -2.59776,2.07817 -2.14754,4.9531 0,0 0.27716,5.47259 3.49842,4.29497 0,0 2.12284,-0.939722 2.35524,-1.14308z"/>
   <path id="_217315808" class="fil4" d="M469.169 17.2077c0,0 2.07817,4.91846 5.47259,7.55086 0,0 10.7376,12.6772 12.4002,23.6225 0,0 0.28208,2.89229 3.81002,8.86711 0,0 1.61164,3.13482 3.04809,9.07491 0,0 0.62349,-13.2313 -3.81011,-24.1074 0,0 -7.20444,-16.6259 -20.9207,-25.008z"/>
   <path id="_217315904" class="fil2" d="M417.66 52.9909l5.32297 -13.4263 7.89825 0 -5.32287 13.4263 -7.89835 0zm0 -26.1507l3.89202 0 -3.89202 -7.7658 7.89835 0 5.32287 10.5727 -3.89202 0 3.89202 7.71882 -7.89825 0 -5.32297 -10.5257zm29.5326 19.6168l0 -28.3229 7.89835 0 0 28.3229 -7.89835 0zm-12.6487 -3.38381l2.86171 -23.3439 6.4675 0 -2.86171 23.3439 -6.4675 0zm-1.23965 4.58458l37.105 -0.079106 -1.32927 5.23933 -37.7982 0.126087 2.02251 -5.28631zm24.5911 -27.9285l6.4674 0 2.81733 23.3278 -6.41019 0 -2.87454 -23.3278z"/>
   <path id="_217316000" class="fil2" d="M433.507 52.9619l-3.00178 0.0834472 -0.667095 -5.50819 5.59434 0 0.184549 -0.665938c2.51248,0 5.1115,0.00414824 7.65418,0.00414824l-0.279572 0.661789 20.9796 0 -0.331474 -0.661982 6.73781 0 1.96617 6.08673 -5.03954 0 -1.75278 0 -10.461 0 0 13.8452 16.4866 -4.95426 0 5.28139 -16.4866 4.90766 0 5.76316 16.8151 -0.061066 -1.69123 3.62962 -23.0191 0.211946 0 -7.01979 -8.37482 3.64573 0 -5.1882 8.37482 -3.69232 0 -16.3691 -6.18378 0 -9.7503 28.6615 -7.39487 0 9.64071 -28.6615z"/>
  </g>
 </g>
</svg>
